<?xml version="1.0" encoding="UTF-8" standalone="no"?><!DOCTYPE svg PUBLIC "-//W3C//DTD SVG 1.1//EN" "http://www.w3.org/Graphics/SVG/1.1/DTD/svg11.dtd"><svg width="100%" height="100%" viewBox="0 0 579 391" version="1.1" xmlns="http://www.w3.org/2000/svg" xmlns:xlink="http://www.w3.org/1999/xlink" xml:space="preserve" xmlns:serif="http://www.serif.com/" style="fill-rule:evenodd;clip-rule:evenodd;stroke-linejoin:round;stroke-miterlimit:2;"><g><path d="M103.42,0l365.551,0c46.257,0 88.919,48.431 88.919,105.536c0,27.763 -14.053,52.269 -35.43,66.789l55.969,153.78l-578.429,0l103.42,-326.105Z" style="fill:#261838;"/><g><rect x="173.061" y="301.061" width="232.308" height="89.926" style="fill:#261838;"/><g><path d="M236.525,308.555l-46.688,0l0,29.976l26.946,-9.621l-26.946,17.114l0,29.228l46.688,-0l-0,-29.22l-28.158,10.587l28.158,-18.085l-0,-29.979Z" style="fill:#fcea92;"/></g><g><path d="M337.91,308.555l-46.687,0l-0,29.976l26.946,-9.621l-26.946,17.114l-0,29.228l46.687,-0l0,-29.22l-28.157,10.587l28.157,-18.085l0,-29.979Z" style="fill:#fcea92;"/></g><g><path d="M388.592,308.555l-46.687,0l-0,29.976l26.946,-9.621l-26.946,17.114l-0,29.228l46.687,-0l0,-29.22l-28.157,10.587l28.157,-18.085l0,-29.979Z" style="fill:#fcea92;"/></g><rect x="240.526" y="308.555" width="46.688" height="66.696" style="fill:#fcea92;"/><path d="M263.87,328.303l3.673,9.927l9.927,3.673l-9.927,3.674l-3.673,9.927l-3.673,-9.927l-9.927,-3.674l9.927,-3.673l3.673,-9.927Z" style="fill:#261838;"/></g><path d="M331.516,295.065l34.513,-103.869l26.104,0l11.42,38.867l1.125,-38.867l12.6,0l0.203,103.869l-43.958,0l-3.104,-30.76l-6.627,30.76l-32.276,0Zm-293.283,0l82.225,-264.584l40.706,0l-82.225,264.584l-40.706,0Zm116.782,-39.139l70.429,-0l13.005,39.139l-147.517,0l34.513,-103.869l51.078,0l-21.508,64.73Zm64.03,-64.73l30.829,103.869l70.112,0l36.272,-103.869l-5.443,0l-65.885,10.228l-60.441,-10.228l-5.444,0Zm49.723,55.695l7.563,25.479l17.198,-0l7.563,-25.479l-32.324,-0Zm59.395,-89.541l107.479,-0l7.262,21.856l-145.984,0l34.155,-102.789l77.674,-0l7.471,22.481l-68.635,0l-5.976,17.985l80.587,0l7.47,22.482l-95.527,-0l-5.976,17.985Zm-201.207,21.856l34.155,-102.789l43.36,-0l11.301,38.462l1.113,-38.462l21.9,-0l34.155,102.789l-86.886,0l-3.072,-30.441l-6.558,30.441l-49.468,0Zm46.198,-148.725l223.604,0l10.471,33.946l-86.629,-0l-30.226,114.779l-5.444,0l-35.67,-114.779l-86.784,-0l10.678,-33.946Z" style="fill:#f3f0f7;"/><path d="M43.676,295.065l82.225,-264.584l40.706,0l-82.225,264.584l-40.706,0Z" style="fill:#40eef2;"/><rect x="91.921" y="64.427" width="85.776" height="11.99" style="fill:#261838;"/><path d="M132.4,179.206l34.154,-102.789l43.36,-0l11.302,38.462l1.113,-38.462l21.9,-0l34.155,102.789l-86.886,0l-3.073,-30.441l-6.558,30.441l-49.467,0Z" style="fill:#40eef2;"/><path d="M178.598,30.481l223.603,0l10.471,33.946l-86.628,-0l-35.67,114.779l-35.671,-114.779l-86.783,-0l10.678,-33.946Z" style="fill:#40eef2;"/><path d="M342.598,157.35l98.487,-0l7.263,21.856l-145.984,0l34.154,-102.789l77.675,-0l7.47,22.481l-59.643,0l-5.976,17.985l71.595,0l7.47,22.482l-86.535,-0l-5.976,17.985Z" style="fill:#40eef2;"/><path d="M160.458,255.926l70.429,-0l13.006,39.139l-147.517,0l34.513,-103.869l51.077,0l-21.508,64.73Z" style="fill:#fc92c8;"/><path d="M224.489,191.196l30.829,103.869l70.111,0l30.829,-103.869l-65.884,10.228l-65.885,-10.228Zm49.723,55.695l7.562,25.479l17.199,-0l7.562,-25.479l-32.323,-0Z" style="fill:#fc92c8;"/><path d="M336.959,295.065l34.513,-103.869l25.661,0l11.42,38.867l1.125,-38.867l13.659,0l13.334,103.869l-58.148,0l-3.104,-30.76l-6.627,30.76l-31.833,0Z" style="fill:#fc92c8;"/><path d="M443.9,30.49c0.172,-0.006 0.35,-0.009 0.531,-0.009c41.042,0 74.362,33.321 74.362,74.363c0,25.589 -12.952,48.176 -32.655,61.559l39.985,128.662l-36.15,0l-29.324,-128.477l17.384,128.477l-31.8,0l-33.041,-264.584l30.706,0l0.002,0.009Z" style="fill:#fff;"/><path d="M484.004,305.255c1.763,1.036 3.81,1.621 5.969,1.621l36.15,0c3.754,0 7.284,-1.784 9.51,-4.807c2.226,-3.023 2.883,-6.924 1.768,-10.509l-37.529,-120.762c18.79,-15.812 30.732,-39.5 30.732,-65.954c0,-47.561 -38.613,-86.174 -86.173,-86.174c-0.311,0 -0.619,0.005 -0.915,0.015c-6.038,0.197 -10.883,4.897 -11.384,10.791c0.507,-6.052 5.581,-10.806 11.766,-10.806l-30.706,0c-3.388,0 -6.612,1.455 -8.854,3.994c-2.242,2.54 -3.286,5.92 -2.866,9.281l33.041,264.584c0.738,5.911 5.763,10.347 11.72,10.347l31.8,0c2.122,0 4.18,-0.57 5.971,-1.621Zm-51.917,-274.774l0.009,-0.358l-0.004,0.358l11.806,0l0.002,0.009c0.172,-0.006 0.35,-0.009 0.531,-0.009c41.042,0 74.362,33.321 74.362,74.363c0,25.589 -12.952,48.176 -32.655,61.559l39.985,128.662l-36.15,0l-29.324,-128.477l17.384,128.477l-31.8,0l-33.041,-264.584l18.895,0Zm0.015,-0.607l-0.005,0.187l0.033,-0.553l-0.028,0.366Z" style="fill:#261838;"/><path d="M448.9,30.49c0.172,-0.006 0.35,-0.009 0.531,-0.009c41.042,0 74.362,33.321 74.362,74.363c0,25.589 -12.952,48.176 -32.655,61.559l41.131,128.687l-37.296,-0.025l-29.324,-128.477l17.384,128.477l-31.8,0l-33.041,-264.584l30.706,0l0.002,0.009Z" style="fill:#40eef2;"/><path d="M472.273,81.094l6.422,17.355l17.355,6.422l-17.355,6.422l-6.422,17.356l-6.422,-17.356l-17.356,-6.422l17.356,-6.422l6.422,-17.355Z" style="fill:#f3f0f7;"/><clipPath id="_clip1"><path d="M472.273,81.094l6.422,17.355l17.355,6.422l-17.355,6.422l-6.422,17.356l-6.422,-17.356l-17.356,-6.422l17.356,-6.422l6.422,-17.355Z"/></clipPath><g clip-path="url(#_clip1)"><path d="M467.273,81.094l6.422,17.355l17.355,6.422l-17.355,6.422l-6.422,17.356l-6.422,-17.356l-17.356,-6.422l17.356,-6.422l6.422,-17.355Z" style="fill:#261838;"/></g></g></svg>