<?xml version="1.0" encoding="UTF-8" standalone="no"?><!DOCTYPE svg PUBLIC "-//W3C//DTD SVG 1.1//EN" "http://www.w3.org/Graphics/SVG/1.1/DTD/svg11.dtd"><svg width="100%" height="100%" viewBox="0 0 945 631" version="1.1" xmlns="http://www.w3.org/2000/svg" xmlns:xlink="http://www.w3.org/1999/xlink" xml:space="preserve" xmlns:serif="http://www.serif.com/" style="fill-rule:evenodd;clip-rule:evenodd;stroke-linejoin:round;stroke-miterlimit:2;"><g id="A-à-l-endroit" serif:id="A à l&apos;endroit"><path d="M167.295,0l604.273,0c74.827,0 143.838,78.344 143.838,170.718c-0,44.91 -22.733,84.553 -57.313,108.04l86.789,248.76l-944.882,-0l167.295,-527.518Z" style="fill:#261838;"/><g><rect x="294.839" y="485.092" width="375.788" height="145.466" style="fill:#261838;"/><g><path d="M397.5,497.214l-75.523,-0l0,48.489l43.589,-15.562l-43.589,27.684l0,47.279l75.523,0l0,-47.267l-45.548,17.126l45.548,-29.254l0,-48.495Z" style="fill:#fcea92;"/></g><g><path d="M561.505,497.214l-75.524,-0l0,48.489l43.59,-15.562l-43.59,27.684l0,47.279l75.524,0l-0,-47.267l-45.548,17.126l45.548,-29.254l-0,-48.495Z" style="fill:#fcea92;"/></g><g><path d="M643.49,497.214l-75.523,-0l-0,48.489l43.589,-15.562l-43.589,27.684l-0,47.279l75.523,0l-0,-47.267l-45.548,17.126l45.548,-29.254l-0,-48.495Z" style="fill:#fcea92;"/></g><path d="M479.497,497.214l-75.523,-0l-0,107.89l75.523,0l-0,-107.89Zm-37.762,31.945l5.942,16.058l16.058,5.942l-16.058,5.942l-5.942,16.058l-5.942,-16.058l-16.058,-5.942l16.058,-5.942l5.942,-16.058Z" style="fill:#fcea92;"/></g><path d="M71.185,477.307l133.01,-427.999l82.024,-0l-133.01,427.999l-82.024,-0Zm529.484,-0l-49.87,-168.022l81.318,-0l35.507,84.011l-4.033,-84.011l25.994,-0l21.57,168.022l-60.556,-0l-36.624,-84.011l11.176,84.011l-24.482,-0Zm-324.398,-63.314l90.852,-0l-18.792,63.314l-175.722,-0l55.83,-168.022l82.625,-0l-34.793,104.708Zm304.806,63.314l8.164,-0l-58.034,-168.022l-113.414,-0l-49.87,168.022l8.163,-0l98.414,-16.545l106.577,16.545Zm-80.433,-90.093l-12.234,-41.216l-27.82,-0l-12.234,41.216l52.288,0Zm-269.761,-97.325l55.25,-166.275l50.125,-0l32.168,77.796l-0.762,-77.796l32.191,-0l55.25,166.275l-122.153,0l-19.871,-74.391l-10.266,74.391l-71.932,0Zm328.097,-38.593l159.316,0l11.748,38.593l-236.148,0l55.249,-166.275l125.649,-0l12.084,39.604l-96.48,-0l-9.667,24.237l115.814,0l12.084,39.604l-139.982,0l-9.667,24.237Zm-253.366,-201.988l349.782,-0l16.938,54.91l-140.133,0l-49.538,185.671l-8.163,0l-57.701,-185.671l-128.458,0l17.273,-54.91Z" style="fill:#f3f0f7;"/><path d="M79.349,477.307l133.009,-427.999l82.024,-0l-133.01,427.999l-82.023,-0Z" style="fill:#40eef2;"/><path d="M239.046,289.889l55.25,-166.275l50.126,-0l32.167,77.796l-0.762,-77.796l32.191,-0l55.25,166.275l-122.153,0l-19.871,-74.391l-10.266,74.391l-71.932,0Z" style="fill:#40eef2;"/><path d="M313.777,49.308l349.782,-0l16.938,54.91l-140.132,0l-57.702,185.671l-57.701,-185.671l-128.457,0l17.272,-54.91Z" style="fill:#40eef2;"/><path d="M567.143,251.296l159.316,0l11.748,38.593l-236.148,0l55.25,-166.275l125.648,-0l12.084,39.604l-96.48,-0l-9.667,24.237l115.814,0l12.084,39.604l-139.982,0l-9.667,24.237Z" style="fill:#40eef2;"/><path d="M284.435,413.993l90.851,-0l-18.792,63.314l-175.721,-0l55.83,-168.022l82.624,-0l-34.792,104.708Z" style="fill:#fc92c8;"/><path d="M589.241,477.307l-49.87,-168.022l-113.415,-0l-49.87,168.022l106.577,-16.545l106.578,16.545Zm-80.434,-90.093l-12.233,-41.216l-27.821,-0l-12.233,41.216l52.287,0Z" style="fill:#fc92c8;"/><path d="M608.833,477.307l-49.871,-168.022l81.318,-0l35.508,84.011l-4.034,-84.011l25.994,-0l21.57,168.022l-60.555,-0l-36.625,-84.011l11.177,84.011l-24.482,-0Z" style="fill:#fc92c8;"/><path d="M731.013,49.321c0.277,-0.009 0.566,-0.013 0.858,-0.013c66.391,-0 120.291,53.9 120.291,120.291c0,41.393 -20.953,77.931 -52.824,99.579l64.68,208.129l-55.241,-0l-50.671,-207.83l24.885,207.83l-48.205,-0l-53.449,-427.999l49.671,-0l0.005,0.013Z" style="fill:#f3f0f7;"/><path d="M795.881,491.084c3.406,3.189 7.97,5.095 12.896,5.095l55.241,0c5.998,0 11.64,-2.852 15.196,-7.682c3.557,-4.83 4.606,-11.063 2.826,-16.791l-60.755,-195.497c30.412,-25.535 49.749,-63.833 49.749,-106.61c0,-76.807 -62.356,-139.164 -139.163,-139.164c-0.501,0 -0.997,0.008 -1.473,0.024c-9.649,0.314 -17.391,7.825 -18.189,17.245c0.808,-9.672 8.916,-17.269 18.799,-17.269l-49.671,0c-5.412,0 -10.565,2.324 -14.147,6.382c-3.583,4.058 -5.25,9.458 -4.58,14.829l53.449,427.999c1.18,9.446 9.209,16.534 18.727,16.534l48.205,0c4.809,0 9.414,-1.835 12.89,-5.095Zm-83.745,-441.776l0.014,-0.576l-0.005,0.576l18.863,-0l0.005,0.013c0.277,-0.009 0.566,-0.013 0.858,-0.013c66.391,-0 120.291,53.9 120.291,120.291c0,41.393 -20.953,77.931 -52.824,99.579l64.68,208.129l-55.241,-0l-50.671,-207.83l24.885,207.83l-48.205,-0l-53.449,-427.999l30.799,-0Zm0.024,-0.972l-0.007,0.301l0.052,-0.888l-0.045,0.587Z" style="fill:#261838;"/><path d="M739.101,49.321c0.277,-0.009 0.566,-0.013 0.858,-0.013c66.391,-0 120.291,53.9 120.291,120.291c0,41.393 -20.952,77.931 -52.824,99.579l64.68,208.129l-55.241,-0l-50.671,-207.83l24.885,207.83l-48.204,-0l-53.45,-427.999l49.671,-0l0.005,0.013Z" style="fill:#40eef2;"/><path d="M776.909,131.18l10.388,28.074l28.075,10.389l-28.075,10.388l-10.388,28.075l-10.389,-28.075l-28.074,-10.388l28.074,-10.389l10.389,-28.074Z" style="fill:#f3f0f7;"/><clipPath id="_clip1"><path d="M776.909,131.18l10.388,28.074l28.075,10.389l-28.075,10.388l-10.388,28.075l-10.389,-28.075l-28.074,-10.388l28.074,-10.389l10.389,-28.074Z"/></clipPath><g clip-path="url(#_clip1)"><path d="M768.82,131.18l10.389,28.074l28.075,10.389l-28.075,10.388l-10.389,28.075l-10.388,-28.075l-28.075,-10.388l28.075,-10.389l10.388,-28.074Z" style="fill:#261838;"/></g><rect x="179.144" y="104.218" width="138.754" height="19.396" style="fill:#261838;"/></g></svg>